# xmcd CD database file
#
# Track frame offsets:
#	150
#	18402
#	47666
#	69027
#	89691
#	108650
#	125799
#	147365
#	169061
#	196541
#	219053
#	249939
#	268188
#	298720
#	326673
#
# Disc length: 4635 seconds
#
# Revision: 0
# Processed by: cddbd v1.5.1PL0 Copyright (c) Steve Scherf et al.
# Submitted via: CDex 1.51
#
DISCID=da12190f
DTITLE=Metropolitan Jazz Affair - MJA
DYEAR=2003
DGENRE=Jazz
TTITLE0=Moanin' darkness
TTITLE1=Singe (nu-school mix)
TTITLE2=Yunowhathislifeez (motorcity mix)
TTITLE3=Corovon
TTITLE4=Navarone
TTITLE5=Yunowhathislifeez (jazz mix)
TTITLE6=Night in Tunisia
TTITLE7=Don't try this at home
TTITLE8=Bleu dune (classic mix)
TTITLE9=Chasing places
TTITLE10=Singe (classic mix)
TTITLE11=The lost syndicate
TTITLE12=Le grand saut
TTITLE13=Taxi gun cafe
TTITLE14=Yunowhathislifeez (chabada mix)
EXTD=YEAR: 2003
EXTT0=
EXTT1=
EXTT2=
EXTT3=
EXTT4=
EXTT5=
EXTT6=
EXTT7=
EXTT8=
EXTT9=
EXTT10=
EXTT11=
EXTT12=
EXTT13=
EXTT14=
PLAYORDER=
